<?xml version="1.0" encoding="utf-8"?>
<!-- Generator: Adobe Illustrator 22.1.0, SVG Export Plug-In . SVG Version: 6.00 Build 0)  -->
<svg version="1.1" id="Layer_1" xmlns="http://www.w3.org/2000/svg" xmlns:xlink="http://www.w3.org/1999/xlink" x="0px" y="0px"
	 viewBox="0 0 40 40" style="enable-background:new 0 0 40 40;" xml:space="preserve">
<style type="text/css">
	.st0{fill:#EEF0F4;}
	.st1{fill:#9FA4A6;}
</style>
<circle class="st0" cx="20" cy="20" r="20"/>
<g>
	<path class="st1" d="M16.6,23.2c0,0.5,0.4,0.9,0.9,0.9h5.1c0.5,0,0.9-0.4,0.9-0.9v-7.7h3.4l-3.4-4.3L20,7l-3.4,4.3l-3.4,4.3h3.4
		V23.2z"/>
	<path class="st1" d="M29.4,24.9h-0.9c-0.5,0-0.9,0.4-0.9,0.9v1.7H12.3v-1.7c0-0.5-0.4-0.9-0.9-0.9h-0.9c-0.5,0-0.9,0.4-0.9,0.9V30
		h2.6h15.3h2.6v-4.3C30.2,25.3,29.8,24.9,29.4,24.9z"/>
</g>
</svg>
