<svg id="add_-assword" data-name="add -assword" xmlns="http://www.w3.org/2000/svg" viewBox="0 0 300 180"><defs><style>.cls-1,.cls-12,.cls-14,.cls-17,.cls-18,.cls-2,.cls-3,.cls-4,.cls-7,.cls-8{fill:none;}.cls-1,.cls-2,.cls-3,.cls-4{stroke:#bfbfbf;}.cls-1,.cls-14,.cls-17,.cls-2,.cls-3,.cls-4{stroke-linecap:round;}.cls-1,.cls-12,.cls-17,.cls-18,.cls-2,.cls-3,.cls-4,.cls-7,.cls-8{stroke-miterlimit:10;}.cls-2{stroke-dasharray:3.06 3.06;}.cls-3{stroke-dasharray:2.97 2.97;}.cls-4{stroke-dasharray:2.9 2.9;}.cls-5{fill:#efefef;}.cls-6{fill:#dfdfdf;}.cls-7{stroke:#979797;}.cls-14,.cls-18,.cls-8{stroke:#36324a;}.cls-8{stroke-width:1.5px;}.cls-9{fill:#ffc84a;}.cls-10{fill:#36324a;}.cls-11{fill:#3fd15b;}.cls-12{stroke:#659ffc;}.cls-13{fill:#67c1f9;}.cls-14{stroke-linejoin:round;}.cls-15{fill:#a174d5;}.cls-16{fill:#f4b22f;}.cls-17{stroke:#efefef;stroke-width:2px;}</style></defs><title>add-password-image</title><line class="cls-1" x1="160.19" y1="111" x2="161.69" y2="111"/><path class="cls-2" d="M164.75,111H213l.5.13c13.1,3.59,15.63,21.31,4,28.32-3.86,2.33-9.18,4.44-16.51,5.92"/><path class="cls-1" d="M199.48,145.66l-1.48.26"/><path class="cls-1" d="M86.76,87.32c.24.42.49.85.77,1.28"/><path class="cls-3" d="M89.23,91c6,7.72,19,16.76,46.79,19.3"/><path class="cls-1" d="M137.51,110.46l1.49.11"/><path class="cls-1" d="M120,55s-.54,0-1.5,0"/><path class="cls-4" d="M115.62,55.16c-8.41.68-26.38,4-30.83,19.81"/><path class="cls-1" d="M84.44,76.38c-.1.48-.2,1-.28,1.47"/><path class="cls-5" d="M184.91,84.72V77.38c0-20.06-15.32-36.38-34.15-36.38s-34.15,16.32-34.15,36.38v7.34H127V77.38c0-14.33,10.66-26,23.76-26s23.75,11.66,23.75,26v7.34Z"/><path class="cls-6" d="M184,86V78.65C184,58.44,169.2,42,151,42s-33,16.44-33,36.65V86h10V78.65c0-14.44,10.3-26.18,23-26.18s23,11.74,23,26.18V86Z"/><line class="cls-7" x1="64" y1="159" x2="78" y2="159"/><line class="cls-7" x1="82" y1="159" x2="87" y2="159"/><line class="cls-7" x1="95" y1="159" x2="211" y2="159"/><line class="cls-7" x1="215" y1="159" x2="220" y2="159"/><path class="cls-8" d="M184.91,84.72V77.38c0-20.06-15.32-36.38-34.15-36.38s-34.15,16.32-34.15,36.38v7.34H127V77.38c0-14.33,10.66-26,23.76-26s23.75,11.66,23.75,26v7.34Z"/><rect class="cls-9" x="204.65" y="115.72" width="50.43" height="13.1" rx="1.86" ry="1.86" transform="translate(-18.21 43.24) rotate(-10.34)"/><rect class="cls-8" x="203.68" y="116.64" width="50.43" height="13.1" rx="1.86" ry="1.86" transform="translate(-18.39 43.08) rotate(-10.34)"/><polygon class="cls-10" points="213.64 124.02 212.04 125.5 211.75 123.33 210.51 123.55 211 125.69 208.99 124.86 208.55 126.04 210.63 126.67 208.91 128.02 209.74 128.96 211.33 127.48 211.62 129.65 212.86 129.43 212.37 127.29 214.38 128.11 214.82 126.94 212.73 126.29 214.46 124.96 213.64 124.02"/><polygon class="cls-10" points="222.68 122.37 221.08 123.85 220.79 121.68 219.55 121.9 220.04 124.04 218.03 123.22 217.59 124.39 219.67 125.02 217.96 126.37 218.78 127.31 220.37 125.83 220.66 128 221.9 127.78 221.41 125.64 223.42 126.47 223.86 125.29 221.77 124.64 223.5 123.31 222.68 122.37"/><polygon class="cls-10" points="231.71 120.72 230.12 122.2 229.82 120.03 228.59 120.25 229.08 122.39 227.07 121.57 226.63 122.74 228.71 123.37 226.99 124.72 227.81 125.66 229.41 124.18 229.7 126.35 230.94 126.13 230.45 123.99 232.46 124.82 232.9 123.64 230.81 122.99 232.53 121.66 231.71 120.72"/><polygon class="cls-10" points="240.75 119.07 239.16 120.56 238.87 118.38 237.63 118.61 238.12 120.75 236.11 119.92 235.67 121.09 237.75 121.72 236.03 123.07 236.85 124.02 238.45 122.53 238.74 124.7 239.98 124.48 239.49 122.34 241.5 123.17 241.94 121.99 239.85 121.34 241.57 120.01 240.75 119.07"/><polygon class="cls-10" points="250.61 118.36 249.79 117.42 248.2 118.91 247.9 116.73 246.67 116.96 247.16 119.1 245.15 118.27 244.71 119.44 246.79 120.08 245.07 121.42 245.89 122.37 247.49 120.88 247.78 123.06 249.02 122.83 248.53 120.69 250.54 121.52 250.97 120.34 248.89 119.69 250.61 118.36"/><path class="cls-9" d="M82.41,75A10.61,10.61,0,0,0,72,87.39c.07.37.15.73.25,1.09s.22.7.35,1L59,103.43V109h4.46v-3.34h3.9v-3.91h4.46L78,95.2l.41.18a10.59,10.59,0,1,0,4-20.38Zm3.07,10.59a3.07,3.07,0,1,1,3.06-3.07A3.06,3.06,0,0,1,85.48,85.59Z"/><path class="cls-11" d="M94.78,33l1.1,3.29a2.7,2.7,0,0,0,1.65,1.38l2.47.82-2.74.82A2.69,2.69,0,0,0,95.61,41l-.83,2.74L93.69,41a3.79,3.79,0,0,0-1.1-1.37l-3.29-1.1,3-1.1A2,2,0,0,0,93.69,36Z"/><rect class="cls-12" x="70.54" y="129.66" width="5.73" height="5.73" transform="translate(56.65 -18.04) rotate(22.63)"/><polygon class="cls-12" points="188.86 21.72 188.39 25.57 187.93 29.42 184.82 27.09 181.72 24.76 185.29 23.24 188.86 21.72"/><polygon class="cls-13" points="224.17 56.52 224.36 57.06 228.9 70.26 212.97 75.75 206.45 56.83 216.56 53.35 217.21 53.12 224.17 56.52"/><polygon class="cls-14" points="224.79 55.25 224.98 55.8 229.53 68.99 213.6 74.48 207.08 55.56 217.19 52.08 217.83 51.85 224.79 55.25"/><path class="cls-15" d="M186,84H120a12,12,0,0,0-12,12v51a12,12,0,0,0,12,12h66a12,12,0,0,0,12-12V96A12,12,0,0,0,186,84Zm-31.73,35.06V131a4.26,4.26,0,1,1-8.51,0V119.06a8,8,0,1,1,8.51,0Z"/><rect class="cls-8" x="105" y="84" width="90" height="75" rx="12" ry="12"/><path class="cls-8" d="M81.41,74A10.61,10.61,0,0,0,71,86.39c.07.37.15.73.25,1.09s.22.7.35,1L58,102.43V108h4.46v-3.34h3.9v-3.91h4.46L77,94.2l.41.18a10.59,10.59,0,1,0,4-20.38Zm3.07,10.59a3.07,3.07,0,1,1,3.06-3.07A3.06,3.06,0,0,1,84.48,84.59Z"/><rect class="cls-16" x="139.13" y="14.5" width="0.75" height="2.5" rx="0.28" ry="0.28"/><rect class="cls-16" x="139.13" y="21" width="0.75" height="2.5" rx="0.28" ry="0.28"/><rect class="cls-16" x="135" y="18.63" width="2.5" height="0.75" rx="0.28" ry="0.28"/><rect class="cls-16" x="141.5" y="18.63" width="2.5" height="0.75" rx="0.28" ry="0.28"/><rect class="cls-16" x="141.42" y="20.05" width="0.75" height="2.5" rx="0.28" ry="0.28" transform="translate(26.47 106.5) rotate(-45)"/><rect class="cls-16" x="136.83" y="15.45" width="0.75" height="2.5" rx="0.28" ry="0.28" transform="translate(28.37 101.9) rotate(-44.99)"/><rect class="cls-16" x="135.95" y="20.92" width="2.5" height="0.75" rx="0.28" ry="0.28" transform="translate(25.13 103.25) rotate(-45)"/><rect class="cls-16" x="140.55" y="16.33" width="2.5" height="0.75" rx="0.28" ry="0.28" transform="translate(29.72 105.16) rotate(-45)"/><rect class="cls-16" x="222.13" y="93.5" width="0.75" height="2.5" rx="0.28" ry="0.28"/><rect class="cls-16" x="222.13" y="100" width="0.75" height="2.5" rx="0.28" ry="0.28"/><rect class="cls-16" x="218" y="97.63" width="2.5" height="0.75" rx="0.28" ry="0.28"/><rect class="cls-16" x="224.5" y="97.63" width="2.5" height="0.75" rx="0.28" ry="0.28"/><rect class="cls-16" x="224.42" y="99.05" width="0.75" height="2.5" rx="0.28" ry="0.28" transform="translate(-5.08 188.33) rotate(-45)"/><rect class="cls-16" x="219.83" y="94.45" width="0.75" height="2.5" rx="0.28" ry="0.28" transform="translate(-3.19 183.71) rotate(-44.99)"/><rect class="cls-16" x="218.95" y="99.92" width="2.5" height="0.75" rx="0.28" ry="0.28" transform="translate(-6.43 185.08) rotate(-45)"/><rect class="cls-16" x="223.55" y="95.33" width="2.5" height="0.75" rx="0.28" ry="0.28" transform="translate(-1.83 186.99) rotate(-45)"/><rect class="cls-10" x="212.07" y="61.5" width="6.85" height="1" rx="0.48" ry="0.48" transform="translate(-8.5 72.41) rotate(-18.71)"/><rect class="cls-10" x="213.9" y="66.6" width="10.5" height="1" rx="0.48" ry="0.48" transform="translate(-9.94 73.85) rotate(-18.71)"/><rect class="cls-10" x="212.99" y="64.05" width="8.67" height="1" rx="0.48" ry="0.48" transform="translate(-9.22 73.13) rotate(-18.71)"/><line class="cls-17" x1="188" y1="138.09" x2="188" y2="145"/><line class="cls-17" x1="188" y1="126.68" x2="188" y2="134"/><polyline class="cls-17" points="188 98 188 99.91 188 101.72 188 113.56 188 116.01 188 119"/><path class="cls-18" d="M154.27,119.06V131a4.26,4.26,0,1,1-8.51,0V119.06a8,8,0,1,1,8.51,0Z"/></svg>