<?xml version="1.0" encoding="utf-8"?>
<!-- Generator: Adobe Illustrator 22.1.0, SVG Export Plug-In . SVG Version: 6.00 Build 0)  -->
<svg version="1.1" xmlns="http://www.w3.org/2000/svg" xmlns:xlink="http://www.w3.org/1999/xlink" x="0px" y="0px"
	 viewBox="0 0 137 154" style="enable-background:new 0 0 137 154;" xml:space="preserve">
<style type="text/css">
	.st0{display:none;}
	.st1{display:inline;}
	.st2{fill:none;stroke:#66C529;stroke-width:3;stroke-linecap:round;stroke-linejoin:round;stroke-miterlimit:10;}
	.st3{fill:#66C529;stroke:#66C529;stroke-width:1.5;stroke-linecap:round;stroke-linejoin:round;stroke-miterlimit:10;}
	.st4{display:inline;fill:none;stroke:#7FCF79;stroke-width:3;stroke-linecap:round;stroke-linejoin:round;stroke-miterlimit:10;}
	.st5{display:inline;fill:#7FCF79;}
	.st6{fill:none;stroke:#FF535B;stroke-width:3;stroke-miterlimit:10;}
	.st7{fill:#FF535B;}
</style>
<g id="Layer_1" class="st0">
	<path class="st4" d="M11.2,35c0,0,18.1-25.4,32.6-29c0,0,18.5-6.9,37,6.9c10.7,8,17.4,20.7,16.9,34.1c-0.1,3-0.5,6-1.4,9
		c-1.4,4.4-1.6,9.2,0.1,13.5c1.5,3.7,0.6,3.8,5.4,5.4"/>
	<path class="st4" d="M7.6,53.2c0,0,12.3,0,22.8-17.1c2.6-4.2,6-7.9,10.2-10.5c9.8-6.1,27.2-11.6,39.5,13.1c0,0,3.3,6.6,0.4,23
		c-0.3,1.8-0.4,3.7-0.3,5.5c0.3,3.5,1.1,5.4,3.5,7.7"/>
	<path class="st4" d="M4,71.3c0,0,24,0,35.3-23.3c1-2,2.1-3.9,3.6-5.5c3-3.3,8.5-7.5,15.3-5.1c5.6,1.9,9.5,7.2,10,13
		c0.5,6.2-1.4,15.8-12.8,27.4c-0.5,0.5-1,1-1.6,1.4c-4.3,3.4-23.4,17.8-42.6,21"/>
	<path class="st4" d="M4,85.8c0,0,39.9-3.6,50.7-36.2"/>
	<path class="st4" d="M11.2,114.8c0,0,36.2-10.9,54.4-32.6l0,0"/>
	<path class="st4" d="M22.1,125.6c0,0,18.1-7.2,32.6-18.1"/>
	<line class="st4" x1="29.4" y1="136.5" x2="54.7" y2="125.6"/>
	<polyline class="st4" points="43.9,147.4 62,140.1 65.6,143.8 	"/>
	<path class="st5" d="M100,82.1c-19,0-34.4,15.4-34.4,34.4S81,151,100,151s34.4-15.4,34.4-34.4S119,82.1,100,82.1z M118.6,110.1
		l-19.9,21.5l-1.1,1.1l-0.1-0.1l-0.8,0.9l-1.1-1.1l-12.7-11.8l-1.1-1.1l1.1-1.1l2.9-3.2l1.1-1.1l1.1,1.1l8.5,7.9l16.8-18.1l1.1-1.1
		l1.1,1.1l3.2,2.9l1.1,1.1L118.6,110.1z"/>
</g>
<g id="Layer_2">
	<path class="st6" d="M59.1,21.3c4.1-7.1,14.4-7.1,18.5,0l26.2,45.3l26.2,45.3c4.1,7.1-1,16-9.3,16H68.4H16c-8.2,0-13.4-8.9-9.3-16
		l26.2-45.3L59.1,21.3z"/>
	<g>
		<path class="st7" d="M64.7,82.1c0.2,2.3,0.6,3.9,1.1,5.1c0.5,1.1,1.4,1.7,2.7,1.7c1.3,0,2.2-0.6,2.8-1.7c0.6-1.1,0.9-2.8,1.1-4.9
			l1.6-18c0.2-1.7,0.3-3.3,0.3-4.9c0-2.7-0.4-4.8-1.1-6.3S71,50.9,69,50.9c-1.7,0-3.1,0.6-4.2,1.7c-1.1,1.1-1.6,2.7-1.6,4.7
			c0,1.5,0.1,3.9,0.3,7.3L64.7,82.1z"/>
		<path class="st7" d="M68.7,95.2c-1.5,0-2.8,0.5-3.9,1.6s-1.6,2.3-1.6,3.8c0,1.7,0.6,3.1,1.7,4s2.4,1.4,3.9,1.4
			c1.5,0,2.7-0.5,3.8-1.5c1.1-1,1.6-2.3,1.6-4c0-1.5-0.5-2.8-1.6-3.8S70.2,95.2,68.7,95.2z"/>
	</g>
</g>
</svg>
