<svg id="no_data_found" data-name="no data found" xmlns="http://www.w3.org/2000/svg" viewBox="0 0 300 180"><defs><style>.cls-1,.cls-10,.cls-11,.cls-3,.cls-4{fill:none;}.cls-1{stroke:#979797;}.cls-1,.cls-10,.cls-11,.cls-3,.cls-4,.cls-6{stroke-miterlimit:10;}.cls-2{fill:#3fd15b;}.cls-3{stroke:#659ffc;}.cls-4{stroke:#bfbfbf;stroke-dasharray:3;}.cls-11,.cls-4{stroke-linecap:round;}.cls-5{fill:#f4b22f;}.cls-6{fill:#fff;}.cls-10,.cls-11,.cls-13,.cls-6{stroke:#36324a;}.cls-10,.cls-13,.cls-6{stroke-width:1.5px;}.cls-7{fill:#dfdfdf;}.cls-8{fill:#ffc84a;}.cls-9{fill:#ff9d4d;}.cls-11{stroke-width:3px;}.cls-12{fill:#36324a;}.cls-13{fill:#67c1f9;stroke-linecap:square;stroke-linejoin:round;}</style></defs><title>no-data-found</title><line class="cls-1" x1="72" y1="146.5" x2="86" y2="146.5"/><line class="cls-1" x1="90" y1="146.5" x2="95" y2="146.5"/><line class="cls-1" x1="103" y1="146.5" x2="219" y2="146.5"/><line class="cls-1" x1="223" y1="146.5" x2="228" y2="146.5"/><path class="cls-2" d="M101.78,46l1.1,3.29a2.7,2.7,0,0,0,1.65,1.38l2.47.82-2.74.82A2.69,2.69,0,0,0,102.61,54l-.83,2.74L100.69,54a3.79,3.79,0,0,0-1.1-1.37l-3.29-1.1,3-1.1A2,2,0,0,0,100.69,49Z"/><rect class="cls-3" x="79.54" y="81.66" width="5.73" height="5.73" transform="translate(38.87 -25.2) rotate(22.63)"/><polygon class="cls-3" points="206.86 41.72 206.39 45.57 205.93 49.42 202.82 47.09 199.72 44.76 203.29 43.24 206.86 41.72"/><path class="cls-4" d="M196,67h17s13.5,1.5,16.9,13.1a7.69,7.69,0,0,1,.1,2.49c0,.17,0,.36,0,.55A18,18,0,0,1,212,100H95.68c-16.7-.43-18,24.51-1.38,25.9.55,0,1.12.08,1.7.11h10.5"/><rect class="cls-5" x="151.13" y="25.5" width="0.75" height="2.5" rx="0.28" ry="0.28"/><rect class="cls-5" x="151.13" y="32" width="0.75" height="2.5" rx="0.28" ry="0.28"/><rect class="cls-5" x="147" y="29.63" width="2.5" height="0.75" rx="0.28" ry="0.28"/><rect class="cls-5" x="153.5" y="29.63" width="2.5" height="0.75" rx="0.28" ry="0.28"/><rect class="cls-5" x="153.42" y="31.05" width="0.75" height="2.5" rx="0.28" ry="0.28" transform="translate(22.21 118.21) rotate(-45)"/><rect class="cls-5" x="148.83" y="26.45" width="0.75" height="2.5" rx="0.28" ry="0.28" transform="translate(24.1 113.6) rotate(-44.99)"/><rect class="cls-5" x="147.95" y="31.92" width="2.5" height="0.75" rx="0.28" ry="0.28" transform="translate(20.86 114.96) rotate(-45)"/><rect class="cls-5" x="152.55" y="27.33" width="2.5" height="0.75" rx="0.28" ry="0.28" transform="translate(25.46 116.87) rotate(-45)"/><rect class="cls-5" x="211.13" y="78.5" width="0.75" height="2.5" rx="0.28" ry="0.28"/><rect class="cls-5" x="211.13" y="85" width="0.75" height="2.5" rx="0.28" ry="0.28"/><rect class="cls-5" x="207" y="82.63" width="2.5" height="0.75" rx="0.28" ry="0.28"/><rect class="cls-5" x="213.5" y="82.63" width="2.5" height="0.75" rx="0.28" ry="0.28"/><rect class="cls-5" x="213.42" y="84.05" width="0.75" height="2.5" rx="0.28" ry="0.28" transform="translate(2.31 176.16) rotate(-45)"/><rect class="cls-5" x="208.83" y="79.45" width="0.75" height="2.5" rx="0.28" ry="0.28" transform="translate(4.2 171.54) rotate(-44.99)"/><rect class="cls-5" x="207.95" y="84.92" width="2.5" height="0.75" rx="0.28" ry="0.28" transform="translate(0.96 172.91) rotate(-45)"/><rect class="cls-5" x="212.55" y="80.33" width="2.5" height="0.75" rx="0.28" ry="0.28" transform="translate(5.56 174.82) rotate(-45)"/><line class="cls-1" x1="205" y1="136.5" x2="165" y2="136.5"/><rect class="cls-6" x="120.51" y="53" width="72.85" height="82.93" rx="11.21" ry="11.21"/><path class="cls-7" d="M187.75,56.36c2.47,0,4.49,4.64,4.49,10.3v55.61c0,5.67-2,10.3-4.49,10.3"/><rect class="cls-8" x="110.42" y="64.21" width="72.85" height="82.93" rx="11.21" ry="11.21"/><path class="cls-9" d="M168.7,64.21a11.24,11.24,0,0,1,11.21,11.2v60.52a11.24,11.24,0,0,1-11.21,11.21"/><rect class="cls-10" x="106.5" y="63.65" width="72.85" height="82.93" rx="11.21" ry="11.21"/><line class="cls-11" x1="118.83" y1="83.66" x2="147.97" y2="83.66"/><line class="cls-11" x1="118.83" y1="94.87" x2="162.54" y2="94.87"/><rect class="cls-12" x="166.56" y="135.46" width="4.61" height="12.03" transform="translate(-50.36 163.17) rotate(-45.61)"/><rect class="cls-13" x="173.38" y="139.24" width="8.74" height="21.72" rx="4.37" ry="4.37" transform="translate(-53.85 172.11) rotate(-45.61)"/><circle class="cls-6" cx="151.49" cy="124.49" r="18.7"/><circle class="cls-10" cx="151.49" cy="124.49" r="14.08"/><line class="cls-11" x1="118.83" y1="106.08" x2="128.5" y2="106.08"/></svg>