<svg id="expiring_passwords" data-name="expiring passwords" xmlns="http://www.w3.org/2000/svg" viewBox="0 0 300 180"><defs><style>.cls-1,.cls-10,.cls-2,.cls-4{fill:none;}.cls-1{stroke:#bfbfbf;stroke-linecap:round;stroke-dasharray:3;}.cls-1,.cls-10,.cls-2,.cls-4,.cls-6,.cls-7{stroke-miterlimit:10;}.cls-2{stroke:#979797;}.cls-3{fill:#3fd15b;}.cls-4{stroke:#659ffc;}.cls-5{fill:#f4b22f;}.cls-6,.cls-8{fill:#fff;}.cls-10,.cls-6,.cls-7{stroke:#36324a;stroke-width:1.5px;}.cls-7{fill:#a174d5;}.cls-9{fill:#f96767;}.cls-11{fill:#ffc84a;}</style></defs><title>expiring-passwords-image</title><path class="cls-1" d="M194,74h17s13.5,1.5,16.9,13.1a7.69,7.69,0,0,1,.1,2.49c0,.17,0,.36,0,.55A18,18,0,0,1,210,107H93.68c-16.7-.43-18,24.51-1.38,25.9.55.05,1.12.08,1.7.11h29.5"/><line class="cls-2" x1="71" y1="152.5" x2="85" y2="152.5"/><line class="cls-2" x1="89" y1="152.5" x2="94" y2="152.5"/><line class="cls-2" x1="102" y1="152.5" x2="218" y2="152.5"/><line class="cls-2" x1="222" y1="152.5" x2="227" y2="152.5"/><path class="cls-3" d="M108.78,32l1.1,3.29a2.7,2.7,0,0,0,1.65,1.38l2.47.82-2.74.82A2.69,2.69,0,0,0,109.61,40l-.83,2.74L107.69,40a3.79,3.79,0,0,0-1.1-1.37l-3.29-1.1,3-1.1A2,2,0,0,0,107.69,35Z"/><rect class="cls-4" x="80.54" y="87.66" width="5.73" height="5.73" transform="translate(41.25 -25.12) rotate(22.63)"/><polygon class="cls-4" points="207.86 47.72 207.39 51.57 206.93 55.42 203.82 53.09 200.72 50.76 204.29 49.24 207.86 47.72"/><rect class="cls-5" x="161.13" y="28.5" width="0.75" height="2.5" rx="0.28" ry="0.28"/><rect class="cls-5" x="161.13" y="35" width="0.75" height="2.5" rx="0.28" ry="0.28"/><rect class="cls-5" x="157" y="32.63" width="2.5" height="0.75" rx="0.28" ry="0.28"/><rect class="cls-5" x="163.5" y="32.63" width="2.5" height="0.75" rx="0.28" ry="0.28"/><rect class="cls-5" x="163.42" y="34.05" width="0.75" height="2.5" rx="0.28" ry="0.28" transform="translate(23.02 126.16) rotate(-45)"/><rect class="cls-5" x="158.83" y="29.45" width="0.75" height="2.5" rx="0.28" ry="0.28" transform="translate(24.91 121.55) rotate(-44.99)"/><rect class="cls-5" x="157.95" y="34.92" width="2.5" height="0.75" rx="0.28" ry="0.28" transform="translate(21.67 122.91) rotate(-45)"/><rect class="cls-5" x="162.55" y="30.33" width="2.5" height="0.75" rx="0.28" ry="0.28" transform="translate(26.27 124.82) rotate(-45)"/><rect class="cls-5" x="212.13" y="84.5" width="0.75" height="2.5" rx="0.28" ry="0.28"/><rect class="cls-5" x="212.13" y="91" width="0.75" height="2.5" rx="0.28" ry="0.28"/><rect class="cls-5" x="208" y="88.63" width="2.5" height="0.75" rx="0.28" ry="0.28"/><rect class="cls-5" x="214.5" y="88.63" width="2.5" height="0.75" rx="0.28" ry="0.28"/><rect class="cls-5" x="214.42" y="90.05" width="0.75" height="2.5" rx="0.28" ry="0.28" transform="translate(-1.64 178.63) rotate(-45)"/><rect class="cls-5" x="209.83" y="85.45" width="0.75" height="2.5" rx="0.28" ry="0.28" transform="translate(0.25 174.01) rotate(-44.99)"/><rect class="cls-5" x="208.95" y="90.92" width="2.5" height="0.75" rx="0.28" ry="0.28" transform="translate(-2.99 175.38) rotate(-45)"/><rect class="cls-5" x="213.55" y="86.33" width="2.5" height="0.75" rx="0.28" ry="0.28" transform="translate(1.61 177.28) rotate(-45)"/><circle class="cls-6" cx="200.5" cy="114.5" r="15.5"/><polyline class="cls-6" points="206.39 117.18 198.79 117.18 198.79 108.1"/><path class="cls-7" d="M192.36,69.53a29.91,29.91,0,0,1-20.31-7.87,30,30,0,0,0-4.15-3.21,52.66,52.66,0,0,0-5.37-2.93,27.8,27.8,0,0,0-23.68,0,58.48,58.48,0,0,0-5.52,3,30.83,30.83,0,0,0-4.17,3.21,30.35,30.35,0,0,1-20.49,7.87c-8.47,66.91,42,82.47,42,82.47S200.75,136.44,192.36,69.53Z"/><path class="cls-6" d="M186.67,74.24a25.5,25.5,0,0,1-17.35-6.72,25.35,25.35,0,0,0-3.54-2.74,46.44,46.44,0,0,0-4.59-2.5,23.77,23.77,0,0,0-20.22,0,46.88,46.88,0,0,0-4.71,2.54,25.62,25.62,0,0,0-3.57,2.74,25.86,25.86,0,0,1-17.5,6.72c-7.24,57.16,35.9,70.45,35.9,70.45S193.84,131.4,186.67,74.24Z"/><path class="cls-8" d="M191.69,116.4a3.64,3.64,0,0,0-6.31,0l-9,15.57-9,15.56a3.65,3.65,0,0,0,3.16,5.47h35.94a3.65,3.65,0,0,0,3.16-5.47l-9-15.56Z"/><path class="cls-9" d="M191.69,116.4a3.64,3.64,0,0,0-6.31,0l-9,15.57-9,15.56a3.65,3.65,0,0,0,3.16,5.47h35.94a3.65,3.65,0,0,0,3.16-5.47l-9-15.56Z"/><path class="cls-10" d="M191.69,116.4a3.64,3.64,0,0,0-6.31,0l-9,15.57-9,15.56a3.65,3.65,0,0,0,3.16,5.47h35.94a3.65,3.65,0,0,0,3.16-5.47l-9-15.56Z"/><path class="cls-8" d="M189.73,140.23a1,1,0,0,1-1,.62,1.07,1.07,0,0,1-1-.64,5.37,5.37,0,0,1-.4-1.83l-.59-6.7c-.06-.61-.09-1.22-.09-1.82a5.54,5.54,0,0,1,.39-2.33,1.58,1.58,0,0,1,1.56-.81,2,2,0,0,1,1.56.63,2.51,2.51,0,0,1,.59,1.76q0,.84-.12,2.73l-.44,6.51A6.14,6.14,0,0,1,189.73,140.23Zm-2.53,6.51a1.88,1.88,0,0,1-.61-1.49,1.93,1.93,0,0,1,.6-1.43,2,2,0,0,1,1.46-.59,2,2,0,0,1,2,2,1.89,1.89,0,0,1-.62,1.5,2.11,2.11,0,0,1-1.44.54A2.05,2.05,0,0,1,187.2,146.74Z"/><path class="cls-11" d="M159.39,80.76A12.23,12.23,0,0,0,147.16,93a13,13,0,0,0,.17,2.08c.07.42.17.84.28,1.25s.26.81.41,1.2L132.35,113.6V120h5.15v-3.86H142v-4.51h5.16l7.08-7.57.47.21a12.36,12.36,0,0,0,4.68.92,12.24,12.24,0,0,0,0-24.47Zm.83,13.59a3.54,3.54,0,1,1,3.54-3.54A3.54,3.54,0,0,1,160.22,94.35Z"/><path class="cls-10" d="M158.63,80a12.24,12.24,0,0,0-12.24,12.23,12,12,0,0,0,.18,2.09c.07.42.17.84.28,1.25a12.1,12.1,0,0,0,.41,1.2l-15.68,16.07v6.44h5.15v-3.86h4.51v-4.51h5.15l7.09-7.57.47.2A12.23,12.23,0,1,0,158.63,80Zm.83,13.59A3.54,3.54,0,1,1,163,90.05,3.54,3.54,0,0,1,159.46,93.59Z"/></svg>