<svg id="restricted" xmlns="http://www.w3.org/2000/svg" viewBox="0 0 300 180"><defs><style>.cls-1{fill:#f96767;}.cls-1,.cls-7{stroke:#36324a;}.cls-1,.cls-2{stroke-linecap:square;stroke-linejoin:round;}.cls-1,.cls-2,.cls-7{stroke-width:1.5px;}.cls-2{fill:#fff;stroke:#5e6468;}.cls-3,.cls-5,.cls-7{fill:none;stroke-miterlimit:10;}.cls-3{stroke:#979797;}.cls-4{fill:#3fd15b;}.cls-5{stroke:#659ffc;}.cls-6{fill:#f4b22f;}</style></defs><title>restricted-image</title><circle class="cls-1" cx="150" cy="99" r="54"/><path class="cls-2" d="M116.77,76.62a40.06,40.06,0,0,0,55.61,55.61L154,113.81l-3.44-3.44L147.16,107l-3-3-2.55-2.55-2.85-2.85L135.19,95Z"/><path class="cls-2" d="M183.23,121.38a40.06,40.06,0,0,0-55.61-55.61Z"/><line class="cls-3" x1="73" y1="152.5" x2="87" y2="152.5"/><line class="cls-3" x1="91" y1="152.5" x2="96" y2="152.5"/><line class="cls-3" x1="104" y1="152.5" x2="220" y2="152.5"/><line class="cls-3" x1="224" y1="152.5" x2="229" y2="152.5"/><path class="cls-4" d="M164.78,28l1.1,3.29a2.7,2.7,0,0,0,1.65,1.38l2.47.82-2.74.82A2.69,2.69,0,0,0,165.61,36l-.83,2.74L163.69,36a3.79,3.79,0,0,0-1.1-1.37l-3.29-1.1,3-1.1A2,2,0,0,0,163.69,31Z"/><rect class="cls-5" x="90.54" y="39.66" width="5.73" height="5.73" transform="translate(23.55 -32.67) rotate(22.63)"/><polygon class="cls-5" points="223.86 121.72 223.39 125.57 222.93 129.42 219.82 127.09 216.72 124.76 220.29 123.24 223.86 121.72"/><rect class="cls-6" x="233.13" y="72.5" width="0.75" height="2.5" rx="0.28" ry="0.28"/><rect class="cls-6" x="233.13" y="79" width="0.75" height="2.5" rx="0.28" ry="0.28"/><rect class="cls-6" x="229" y="76.63" width="2.5" height="0.75" rx="0.28" ry="0.28"/><rect class="cls-6" x="235.5" y="76.63" width="2.5" height="0.75" rx="0.28" ry="0.28"/><rect class="cls-6" x="235.42" y="78.05" width="0.75" height="2.5" rx="0.28" ry="0.28" transform="translate(12.99 189.96) rotate(-45)"/><rect class="cls-6" x="230.83" y="73.45" width="0.75" height="2.5" rx="0.28" ry="0.28" transform="translate(14.88 185.34) rotate(-44.99)"/><rect class="cls-6" x="229.95" y="78.92" width="2.5" height="0.75" rx="0.28" ry="0.28" transform="translate(11.65 186.71) rotate(-45)"/><rect class="cls-6" x="234.55" y="74.33" width="2.5" height="0.75" rx="0.28" ry="0.28" transform="translate(16.24 188.61) rotate(-45)"/><rect class="cls-6" x="72.13" y="94.5" width="0.75" height="2.5" rx="0.28" ry="0.28"/><rect class="cls-6" x="72.13" y="101" width="0.75" height="2.5" rx="0.28" ry="0.28"/><rect class="cls-6" x="68" y="98.63" width="2.5" height="0.75" rx="0.28" ry="0.28"/><rect class="cls-6" x="74.5" y="98.63" width="2.5" height="0.75" rx="0.28" ry="0.28"/><rect class="cls-6" x="74.42" y="100.05" width="0.75" height="2.5" rx="0.28" ry="0.28" transform="translate(-49.72 82.56) rotate(-45)"/><rect class="cls-6" x="69.83" y="95.45" width="0.75" height="2.5" rx="0.28" ry="0.28" transform="translate(-47.81 77.95) rotate(-44.99)"/><rect class="cls-6" x="68.95" y="100.92" width="2.5" height="0.75" rx="0.28" ry="0.28" transform="translate(-51.07 79.31) rotate(-45)"/><rect class="cls-6" x="73.55" y="96.33" width="2.5" height="0.75" rx="0.28" ry="0.28" transform="translate(-46.47 81.21) rotate(-45)"/><circle class="cls-7" cx="150" cy="99" r="54"/></svg>