<?xml version="1.0" encoding="UTF-8"?>
<svg id="Layer_1" data-name="Layer 1" xmlns="http://www.w3.org/2000/svg" xmlns:xlink="http://www.w3.org/1999/xlink" viewBox="0 0 90 90">
  <defs>
    <style>
      .cls-1 {
        fill: url(#linear-gradient);
      }

      .cls-1, .cls-2, .cls-3 {
        stroke-width: 0px;
      }

      .cls-4 {
        filter: url(#drop-shadow-2);
      }

      .cls-2 {
        filter: url(#drop-shadow-1);
      }

      .cls-2, .cls-3 {
        fill: #fff;
      }
    </style>
    <linearGradient id="linear-gradient" x1="9.24" y1="26.82" x2="89.47" y2="67.61" gradientUnits="userSpaceOnUse">
      <stop offset="0" stop-color="#1faaff"/>
      <stop offset="1" stop-color="#2366f5"/>
    </linearGradient>
    <filter id="drop-shadow-1" filterUnits="userSpaceOnUse">
      <feOffset dx="1" dy="2"/>
      <feGaussianBlur result="blur" stdDeviation="1"/>
      <feFlood flood-color="#000" flood-opacity=".15"/>
      <feComposite in2="blur" operator="in"/>
      <feComposite in="SourceGraphic"/>
    </filter>
    <filter id="drop-shadow-2" filterUnits="userSpaceOnUse">
      <feOffset dx="1" dy="2"/>
      <feGaussianBlur result="blur-2" stdDeviation="1"/>
      <feFlood flood-color="#000" flood-opacity=".15"/>
      <feComposite in2="blur-2" operator="in"/>
      <feComposite in="SourceGraphic"/>
    </filter>
  </defs>
  <rect class="cls-1" width="90" height="90" rx="20" ry="20"/>
  <path class="cls-2" d="m44.97,15c.74,0,1.48.13,2.18.38l20.08,7.16c2.56.91,4.26,3.32,4.26,6.01v17.24c0,.18,0,.36-.02.53-1.23,15.43-16.96,24.78-23.49,28.01-.9.45-1.88.67-2.87.67-.92,0-1.84-.2-2.7-.59-23.88-11.09-23.89-28.35-23.89-28.35v-17.43c0-2.68,1.69-5.08,4.23-6l20.01-7.24c.71-.26,1.46-.39,2.21-.39m0-4c-1.22,0-2.42.21-3.57.63l-20.01,7.24c-4.11,1.49-6.87,5.41-6.87,9.76v17.43c0,.81.32,19.95,26.21,31.98,1.36.63,2.88.97,4.38.97,1.6,0,3.21-.38,4.64-1.09,7.26-3.6,24.31-13.85,25.7-31.28.02-.27.03-.55.03-.85v-17.24c0-4.37-2.78-8.3-6.92-9.78l-20.08-7.16c-1.13-.4-2.32-.61-3.53-.61h0Z"/>
  <g class="cls-4">
    <ellipse class="cls-3" cx="43.57" cy="34.9" rx="6.84" ry="6.9"/>
    <path class="cls-3" d="m43.57,44.17c-7.67,0-13.67,4.07-13.68,9.27v.02c-.01,1.48.55,2.91,1.54,3.92.89.9,2.05,1.4,3.27,1.4h17.74c2.65,0,4.81-2.37,4.81-5.28v-.06c0-5.2-6.01-9.28-13.68-9.28Z"/>
  </g>
</svg>