<svg id="Layer_9" data-name="Layer 9" xmlns="http://www.w3.org/2000/svg" viewBox="0 0 300 180"><defs><style>.cls-1,.cls-14,.cls-3,.cls-6,.cls-7{fill:none;}.cls-1{stroke:#979797;}.cls-1,.cls-10,.cls-11,.cls-12,.cls-14,.cls-3,.cls-7,.cls-8{stroke-miterlimit:10;}.cls-2{fill:#3fd15b;}.cls-3{stroke:#659ffc;}.cls-4{fill:#f4b22f;}.cls-5{fill:#67c1f9;}.cls-10,.cls-11,.cls-12,.cls-6,.cls-7,.cls-8{stroke:#36324a;stroke-width:1.5px;}.cls-14,.cls-6{stroke-linecap:round;}.cls-6{stroke-linejoin:round;}.cls-8{fill:#dfdfdf;}.cls-11,.cls-9{fill:#a174d5;}.cls-10{fill:#f9e0ca;}.cls-12{fill:#fff;}.cls-13{fill:#ffc84a;}.cls-14{stroke:#bfbfbf;stroke-dasharray:3;}</style></defs><title>no-users-images</title><line class="cls-1" x1="47.3" y1="162.5" x2="61.3" y2="162.5"/><line class="cls-1" x1="65.3" y1="162.5" x2="70.3" y2="162.5"/><line class="cls-1" x1="78.3" y1="162.5" x2="194.3" y2="162.5"/><line class="cls-1" x1="198.3" y1="162.5" x2="203.3" y2="162.5"/><line class="cls-1" x1="95.3" y1="162.5" x2="109.3" y2="162.5"/><line class="cls-1" x1="113.3" y1="162.5" x2="118.3" y2="162.5"/><line class="cls-1" x1="126.3" y1="162.5" x2="242.3" y2="162.5"/><line class="cls-1" x1="246.3" y1="162.5" x2="251.3" y2="162.5"/><path class="cls-2" d="M125.78,25l1.1,3.29a2.7,2.7,0,0,0,1.65,1.38l2.47.82-2.74.82A2.69,2.69,0,0,0,126.61,33l-.83,2.74L124.69,33a3.79,3.79,0,0,0-1.1-1.37l-3.29-1.1,3-1.1A2,2,0,0,0,124.69,28Z"/><rect class="cls-3" x="245.54" y="130.66" width="5.73" height="5.73" transform="translate(70.51 -85.3) rotate(22.63)"/><polygon class="cls-3" points="53.86 51.72 53.39 55.57 52.93 59.42 49.82 57.09 46.72 54.76 50.29 53.24 53.86 51.72"/><rect class="cls-4" x="219.13" y="36.5" width="0.75" height="2.5" rx="0.28" ry="0.28"/><rect class="cls-4" x="219.13" y="43" width="0.75" height="2.5" rx="0.28" ry="0.28"/><rect class="cls-4" x="215" y="40.63" width="2.5" height="0.75" rx="0.28" ry="0.28"/><rect class="cls-4" x="221.5" y="40.63" width="2.5" height="0.75" rx="0.28" ry="0.28"/><rect class="cls-4" x="221.42" y="42.05" width="0.75" height="2.5" rx="0.28" ry="0.28" transform="translate(34.35 169.52) rotate(-45)"/><rect class="cls-4" x="216.83" y="37.45" width="0.75" height="2.5" rx="0.28" ry="0.28" transform="translate(36.24 164.9) rotate(-44.99)"/><rect class="cls-4" x="215.95" y="42.92" width="2.5" height="0.75" rx="0.28" ry="0.28" transform="translate(33 166.27) rotate(-45)"/><rect class="cls-4" x="220.55" y="38.33" width="2.5" height="0.75" rx="0.28" ry="0.28" transform="translate(37.6 168.17) rotate(-45)"/><rect class="cls-4" x="54.13" y="127.5" width="0.75" height="2.5" rx="0.28" ry="0.28"/><rect class="cls-4" x="54.13" y="134" width="0.75" height="2.5" rx="0.28" ry="0.28"/><rect class="cls-4" x="50" y="131.63" width="2.5" height="0.75" rx="0.28" ry="0.28"/><rect class="cls-4" x="56.5" y="131.63" width="2.5" height="0.75" rx="0.28" ry="0.28"/><rect class="cls-4" x="56.42" y="133.05" width="0.75" height="2.5" rx="0.28" ry="0.28" transform="translate(-78.33 79.5) rotate(-45)"/><rect class="cls-4" x="51.83" y="128.45" width="0.75" height="2.5" rx="0.28" ry="0.28" transform="translate(-76.42 74.89) rotate(-44.99)"/><rect class="cls-4" x="50.95" y="133.92" width="2.5" height="0.75" rx="0.28" ry="0.28" transform="translate(-79.67 76.25) rotate(-45)"/><rect class="cls-4" x="55.55" y="129.33" width="2.5" height="0.75" rx="0.28" ry="0.28" transform="translate(-75.08 78.15) rotate(-45)"/><path class="cls-5" d="M71.51,161.46V143.89s-1.2-9,16.81-13a13.67,13.67,0,0,1,3.06-.34h12a12.37,12.37,0,0,1,2.71.3c4.22.92,15.73,4.23,16.24,13v17.78H71.51"/><line class="cls-6" x1="78.49" y1="161.03" x2="78.49" y2="151.51"/><line class="cls-6" x1="110.87" y1="161.03" x2="110.87" y2="151.51"/><path class="cls-7" d="M69,162.3V143.89s-1.2-9,16.81-13a13.67,13.67,0,0,1,3.06-.34h12a12.37,12.37,0,0,1,2.71.3c4.22.92,15.73,4.23,16.24,13v17.78H69"/><path class="cls-8" d="M87.58,120.82v13.54s5.08,6.78,12.7,0V120.82Z"/><path class="cls-9" d="M76.57,100.5s5.42-9,12.93-.21c0,0,8.64,11.29,21.79,1.9,0,0,0-18.63-16.94-19.47C94.35,82.72,77.42,81,76.57,100.5Z"/><rect class="cls-10" x="75.95" y="81.69" width="35.55" height="46.34" rx="17.77" ry="17.77"/><path class="cls-11" d="M76.57,100.5s5.42-9,12.93-.21c0,0,8.64,11.29,21.79,1.9,0,0,0-18.63-16.94-19.47C94.35,82.72,77.42,81,76.57,100.5Z"/><path class="cls-5" d="M169.72,161.46V143.89s-1.2-9,16.81-13a13.67,13.67,0,0,1,3.06-.34h12a12.3,12.3,0,0,1,2.71.3c4.22.92,15.73,4.23,16.25,13v17.78H169.72"/><line class="cls-6" x1="181.78" y1="161.03" x2="181.78" y2="151.51"/><line class="cls-6" x1="214.16" y1="161.03" x2="214.16" y2="151.51"/><path class="cls-7" d="M172.26,161.46V143.89s-1.2-9,16.81-13a13.67,13.67,0,0,1,3.06-.34h12a12.3,12.3,0,0,1,2.71.3c4.22.92,15.73,4.23,16.25,13v17.78H172.26"/><polygon class="cls-11" points="179.02 99.65 179.02 126.47 196.44 134.36 214.58 126.47 214.58 99.65 179.02 99.65"/><path class="cls-8" d="M197,122.08h-6.35v7.62s0,7.11,3.72,10.55a3.9,3.9,0,0,0,5.26,0c3.72-3.44,3.72-10.55,3.72-10.55v-7.62Z"/><rect class="cls-10" x="179.25" y="81.69" width="35.55" height="46.34" rx="17.77" ry="17.77"/><path class="cls-11" d="M179.87,100.5s5.41-9,12.92-.21c0,0,8.64,11.29,21.79,1.9,0,0,0-18.63-16.93-19.47C197.65,82.72,180.71,81,179.87,100.5Z"/><path class="cls-12" d="M111.29,162.16V138s-1.6-12,22.41-17.33a18.78,18.78,0,0,1,4.09-.45h16a16.77,16.77,0,0,1,3.61.39c5.63,1.23,21,5.65,21.67,17.39v23.71H111.29"/><path class="cls-13" d="M108.75,162.53V138s-1.6-12,22.41-17.33a18.78,18.78,0,0,1,4.09-.45H151.2a16.77,16.77,0,0,1,3.61.39c5.63,1.23,21,5.65,21.67,17.39v23.71H108.75"/><line class="cls-6" x1="123.99" y1="160.83" x2="123.99" y2="148.13"/><line class="cls-6" x1="167.17" y1="160.83" x2="167.17" y2="148.13"/><path class="cls-7" d="M111.29,162.16V138s-1.6-12,22.41-17.33a18.78,18.78,0,0,1,4.09-.45h16a16.77,16.77,0,0,1,3.61.39c5.63,1.23,21,5.65,21.67,17.39v23.71H111.29"/><path class="cls-8" d="M134.15,108.34v13.55s8.46,6.77,21.16,0V108.34Z"/><rect class="cls-10" x="120.6" y="55" width="47.41" height="61.81" rx="23.71" ry="23.71"/><path class="cls-11" d="M121.45,83.79s4.77-6,9.55-8.35c0,0,2.39,3.58-3,7.15,0,0,10.75,2.39,17.32-13.7,0,0,1.79,1.79.59,6.55a11,11,0,0,0,13.14-5.36s5.72,4.71,8.11,9.47c0,0,.84-20-20.17-23.47a16.92,16.92,0,0,0-5.22-.06C135.52,57,118.91,61.77,121.45,83.79Z"/><path class="cls-14" d="M77,122S36.19,100.85,65.74,63.44a19.69,19.69,0,0,1,1.85-2C72,57.18,89,42.19,104.5,46.5c0,0,25.39,6.77,40.36-5.38a36.63,36.63,0,0,1,14.32-7.36c11.22-2.72,28.27-3.2,36,15.44a13.52,13.52,0,0,0,10.69,8.1c15.22,2.1,45.21,9.52,38.52,35.22a13.75,13.75,0,0,0-.22,5.78c1.08,6.38.64,21.15-28.19,17.2"/></svg>