<svg id="Layer_1" data-name="Layer 1" xmlns="http://www.w3.org/2000/svg" viewBox="0 0 115.75 115.75"><defs><style>.cls-1,.cls-2{fill:#d2d7db;}.cls-2{opacity:0.48;}</style></defs><title>profile</title><path class="cls-1" d="M62.63,120.5A57.88,57.88,0,1,1,120.5,62.63,57.94,57.94,0,0,1,62.63,120.5Zm0-114.75A56.88,56.88,0,1,0,119.5,62.63,56.94,56.94,0,0,0,62.63,5.75Z" transform="translate(-4.75 -4.75)"/><path class="cls-2" d="M82.43,116.49a65.6,65.6,0,0,1-17.65,3.46A57.17,57.17,0,0,0,82.43,116.49Z" transform="translate(-4.75 -4.75)"/><path class="cls-2" d="M46.53,117.7a62.11,62.11,0,0,1-20.66-11A57.22,57.22,0,0,0,46.53,117.7Z" transform="translate(-4.75 -4.75)"/><path class="cls-2" d="M62.63,5.25a57.37,57.37,0,0,0-38.75,99.68c.19-1.43,15.2-8.51,15.2-8.51,9.53-2.52,8.45-19.24,8.45-19.24-4.1-3.79-4.1-12-4.1-12-4.26-1.74-4.26-10.09-4.26-10.09-.63-5.21,2.37-5,2.37-5-.16-1.42-.79-11.67-.79-11.67-4.26,1.42-.47-10.71-.47-10.71C43.4,19,54.52,15.6,54.52,15.6c10.82-3.49,21.59,4.08,21.59,4.08C84.16,19.45,85,29.8,85,29.8c.77,5-.65,20-.65,20,3.84-.24,3,6,3,6-1.36,10.29-4.5,9.46-4.5,9.46-.71,8.75-5,12.36-5,12.36l.47,6.09c.59,6.62,2.84,9.23,2.84,9.23.89,1.36,5.5,3.79,5.5,3.79,1.75,1,15.11,7.45,15.41,7.59A57.36,57.36,0,0,0,62.63,5.25Z" transform="translate(-4.75 -4.75)"/></svg>