<svg id="Layer_1" data-name="Layer 1" xmlns="http://www.w3.org/2000/svg" viewBox="0 0 1402 1402"><defs><style>.cls-1{fill:#fff;}</style></defs><title>Vault-white-1024</title><path class="cls-1" d="M1180.59,1428H1043.14a96.32,96.32,0,0,1-96.22-96.22v-56.35a13.76,13.76,0,0,0-13.74-13.75H520.82a13.76,13.76,0,0,0-13.74,13.75v56.35A96.32,96.32,0,0,1,410.86,1428H273.41a96.32,96.32,0,0,1-96.21-96.22v-74.54c-86.36-18.93-151.2-96-151.2-188V218.43C26,112.32,112.32,26,218.43,26H1235.57C1341.68,26,1428,112.32,1428,218.43v850.82c0,92-64.84,169.06-151.2,188v74.54A96.32,96.32,0,0,1,1180.59,1428ZM520.82,1179.21H933.18a96.33,96.33,0,0,1,96.21,96.22v56.35a13.77,13.77,0,0,0,13.75,13.75h137.45a13.76,13.76,0,0,0,13.74-13.75V1220.45a41.25,41.25,0,0,1,41.24-41.24,110.08,110.08,0,0,0,110-110V218.43a110.09,110.09,0,0,0-110-110H218.43a110.09,110.09,0,0,0-110,110v850.82a110.08,110.08,0,0,0,110,110,41.25,41.25,0,0,1,41.24,41.24v111.33a13.76,13.76,0,0,0,13.74,13.75H410.86a13.77,13.77,0,0,0,13.75-13.75v-56.35A96.33,96.33,0,0,1,520.82,1179.21Z" transform="translate(-26 -26)"/><path class="cls-1" d="M625.64,454.31" transform="translate(-26 -26)"/><path class="cls-1" d="M465.12,889.88a41.24,41.24,0,0,1-33.31-65.49L565.72,640.27a41.23,41.23,0,1,1,66.69,48.51L498.51,872.9A41.2,41.2,0,0,1,465.12,889.88Z" transform="translate(-26 -26)"/><path class="cls-1" d="M733,889.88a41.2,41.2,0,0,1-33.39-17L565.72,688.78a41.23,41.23,0,1,1,66.69-48.51L766.32,824.39A41.24,41.24,0,0,1,733,889.88Z" transform="translate(-26 -26)"/><path class="cls-1" d="M599.06,705.76a41.23,41.23,0,0,1-41.23-41.24v-226a41.24,41.24,0,0,1,82.47,0v226A41.24,41.24,0,0,1,599.06,705.76Z" transform="translate(-26 -26)"/><path class="cls-1" d="M599.05,705.77a41.24,41.24,0,0,1-12.65-80.49l216.21-69.74A41.23,41.23,0,0,1,827.93,634L611.72,703.77A41.37,41.37,0,0,1,599.05,705.77Z" transform="translate(-26 -26)"/><path class="cls-1" d="M599.07,705.77a41.47,41.47,0,0,1-12.67-2L370.2,634a41.23,41.23,0,1,1,25.32-78.48l216.2,69.74a41.24,41.24,0,0,1-12.65,80.49Z" transform="translate(-26 -26)"/><path class="cls-1" d="M1070.21,889A41.24,41.24,0,0,1,1029,847.71V439.49a41.24,41.24,0,1,1,82.47,0V847.71A41.23,41.23,0,0,1,1070.21,889Z" transform="translate(-26 -26)"/></svg>