<?xml version="1.0" encoding="utf-8"?>
<!-- Generator: Adobe Illustrator 22.1.0, SVG Export Plug-In . SVG Version: 6.00 Build 0)  -->
<svg version="1.1" id="Layer_1" xmlns="http://www.w3.org/2000/svg" xmlns:xlink="http://www.w3.org/1999/xlink" x="0px" y="0px"
	 viewBox="0 0 48 48" style="enable-background:new 0 0 48 48;" xml:space="preserve">
<style type="text/css">
	.st0{fill:#FFFFFF;}
	.st1{opacity:0.9;}
	.st2{fill:#226EB3;}
	.st3{fill:none;stroke:#000000;stroke-width:60;stroke-linecap:round;stroke-linejoin:round;stroke-miterlimit:10;}
	.st4{fill:#E42528;}
</style>
<g>
	<path class="st0" d="M41.3,2.8H6.7c-2.1,0-3.9,1.7-3.9,3.9v29c0,2.1,1.7,3.9,3.9,3.9h0.2C7.4,39.7,8,40,8,41.1v2.6v1
		c0,0.3,0.2,0.5,0.5,0.5H9h2h2.2c0.3,0,0.5-0.2,0.5-0.5v-2.1c0,0,0.1-2.7,3-3.1h14.7c2.9,0.4,3,3.1,3,3.1v2.1c0,0.3,0.2,0.5,0.5,0.5
		H37h2h0.5c0.3,0,0.5-0.2,0.5-0.5v-1v-2.6c0-1.1,0.6-1.4,1.1-1.6h0.2c2.1,0,3.9-1.7,3.9-3.9v-29C45.2,4.5,43.4,2.8,41.3,2.8z"/>
	<g>
		<g class="st1">
			<path class="st2" d="M39.5,48h-4.7c-1.8,0-3.3-1.5-3.3-3.3v-1.9c0-0.3-0.2-0.5-0.5-0.5H16.9c-0.3,0-0.5,0.2-0.5,0.5v1.9
				c0,1.8-1.5,3.3-3.3,3.3H8.5c-1.8,0-3.3-1.5-3.3-3.3v-2.6c-3-0.6-5.2-3.3-5.2-6.4V6.6C0,3,3,0,6.6,0h34.8C45,0,48,3,48,6.6v29.1
				c0,3.1-2.2,5.8-5.2,6.4v2.6C42.8,46.5,41.3,48,39.5,48z M16.9,39.5h14.1c1.8,0,3.3,1.5,3.3,3.3v1.9c0,0.3,0.2,0.5,0.5,0.5h4.7
				c0.3,0,0.5-0.2,0.5-0.5v-3.8c0-0.8,0.6-1.4,1.4-1.4c2.1,0,3.8-1.7,3.8-3.8V6.6c0-2.1-1.7-3.8-3.8-3.8H6.6c-2.1,0-3.8,1.7-3.8,3.8
				v29.1c0,2.1,1.7,3.8,3.8,3.8c0.8,0,1.4,0.6,1.4,1.4v3.8c0,0.3,0.2,0.5,0.5,0.5h4.7c0.3,0,0.5-0.2,0.5-0.5v-1.9
				C13.6,41,15.1,39.5,16.9,39.5z"/>
		</g>
		<g class="st1">
			<path class="st3" d="M20.5,14.7"/>
		</g>
		<g class="st1">
			<path class="st4" d="M15,29.6c-0.3,0-0.6-0.1-0.8-0.3c-0.6-0.5-0.8-1.3-0.3-2l4.6-6.3c0.5-0.6,1.3-0.8,2-0.3
				c0.6,0.5,0.8,1.3,0.3,2L16.2,29C15.9,29.4,15.5,29.6,15,29.6z"/>
		</g>
		<g class="st1">
			<path class="st4" d="M24.2,29.6c-0.4,0-0.9-0.2-1.1-0.6l-4.6-6.3c-0.5-0.6-0.3-1.5,0.3-2c0.6-0.5,1.5-0.3,2,0.3l4.6,6.3
				c0.5,0.6,0.3,1.5-0.3,2C24.8,29.5,24.5,29.6,24.2,29.6z"/>
		</g>
		<g class="st1">
			<path class="st4" d="M19.6,23.3c-0.8,0-1.4-0.6-1.4-1.4v-7.7c0-0.8,0.6-1.4,1.4-1.4c0.8,0,1.4,0.6,1.4,1.4v7.7
				C21,22.6,20.4,23.3,19.6,23.3z"/>
		</g>
		<g class="st1">
			<path class="st4" d="M19.6,23.3c-0.6,0-1.1-0.4-1.3-1c-0.2-0.7,0.2-1.5,0.9-1.8l7.4-2.4c0.7-0.2,1.5,0.2,1.8,0.9
				c0.2,0.7-0.2,1.5-0.9,1.8l-7.4,2.4C19.9,23.3,19.8,23.3,19.6,23.3z"/>
		</g>
		<g class="st1">
			<path class="st4" d="M19.6,23.3c-0.1,0-0.3,0-0.4-0.1l-7.4-2.4c-0.7-0.2-1.1-1-0.9-1.8c0.2-0.7,1-1.1,1.8-0.9l7.4,2.4
				c0.7,0.2,1.1,1,0.9,1.8C20.8,22.9,20.2,23.3,19.6,23.3z"/>
		</g>
		<g class="st1">
			<path class="st2" d="M35.8,29.5c-0.8,0-1.4-0.6-1.4-1.4v-14c0-0.8,0.6-1.4,1.4-1.4c0.8,0,1.4,0.6,1.4,1.4v14
				C37.2,28.9,36.5,29.5,35.8,29.5z"/>
		</g>
	</g>
</g>
</svg>
