<svg id="Layer_1" data-name="Layer 1" xmlns="http://www.w3.org/2000/svg" viewBox="0 0 64 64"><defs><style>.cls-1{fill:#fff;}.cls-2{opacity:0.9;}.cls-3{fill:#777;}</style></defs><path class="cls-1" d="M52.2,7.24H11.8a4.5,4.5,0,0,0-4.51,4.5V45.62a4.51,4.51,0,0,0,4.51,4.5H12a1.68,1.68,0,0,1,1.33,1.81v4.23a.55.55,0,0,0,.55.55h5.49a.55.55,0,0,0,.55-.55V53.7a3.89,3.89,0,0,1,3.5-3.58H40.59a3.89,3.89,0,0,1,3.5,3.58v2.46a.55.55,0,0,0,.55.55h5.49a.55.55,0,0,0,.55-.55V51.93A1.67,1.67,0,0,1,52,50.12h.18a4.51,4.51,0,0,0,4.51-4.5V11.74A4.5,4.5,0,0,0,52.2,7.24Z"/><g class="cls-2"><path class="cls-3" d="M50.12,60H44.63a3.85,3.85,0,0,1-3.85-3.84V53.91a.54.54,0,0,0-.54-.55H23.76a.54.54,0,0,0-.54.55v2.25A3.85,3.85,0,0,1,19.37,60H13.88A3.84,3.84,0,0,1,10,56.16v-3a7.71,7.71,0,0,1-6-7.51v-34A7.7,7.7,0,0,1,11.69,4H52.31A7.7,7.7,0,0,1,60,11.69v34a7.71,7.71,0,0,1-6,7.51v3A3.84,3.84,0,0,1,50.12,60ZM23.76,50.06H40.24a3.86,3.86,0,0,1,3.84,3.85v2.25a.55.55,0,0,0,.55.55h5.49a.55.55,0,0,0,.55-.55V51.71a1.64,1.64,0,0,1,1.64-1.65,4.4,4.4,0,0,0,4.4-4.39v-34a4.41,4.41,0,0,0-4.4-4.4H11.69a4.41,4.41,0,0,0-4.4,4.4v34a4.4,4.4,0,0,0,4.4,4.39,1.64,1.64,0,0,1,1.64,1.65v4.45a.55.55,0,0,0,.55.55h5.49a.55.55,0,0,0,.55-.55V53.91A3.86,3.86,0,0,1,23.76,50.06Z"/></g><g class="cls-2"><path class="cls-3" d="M21.54,38.51a1.7,1.7,0,0,1-1-.32,1.64,1.64,0,0,1-.36-2.3l5.35-7.35a1.64,1.64,0,1,1,2.66,1.93l-5.34,7.36A1.68,1.68,0,0,1,21.54,38.51Z"/></g><g class="cls-2"><path class="cls-3" d="M32.24,38.51a1.64,1.64,0,0,1-1.33-.68l-5.35-7.36a1.65,1.65,0,0,1,2.66-1.94l5.35,7.36a1.65,1.65,0,0,1-1.33,2.62Z"/></g><g class="cls-2"><path class="cls-3" d="M26.89,31.15a1.65,1.65,0,0,1-1.65-1.65v-9a1.65,1.65,0,1,1,3.3,0v9A1.65,1.65,0,0,1,26.89,31.15Z"/></g><g class="cls-2"><path class="cls-3" d="M26.89,31.15a1.64,1.64,0,0,1-.51-3.21L35,25.15a1.65,1.65,0,0,1,1,3.14L27.4,31.07A1.51,1.51,0,0,1,26.89,31.15Z"/></g><g class="cls-2"><path class="cls-3" d="M26.89,31.15a1.51,1.51,0,0,1-.51-.08l-8.63-2.78a1.65,1.65,0,0,1,1-3.14l8.63,2.79a1.64,1.64,0,0,1-.5,3.21Z"/></g><g class="cls-2"><path class="cls-3" d="M45.71,38.47a1.65,1.65,0,0,1-1.65-1.65V20.51a1.65,1.65,0,0,1,3.3,0V36.82A1.65,1.65,0,0,1,45.71,38.47Z"/></g></svg>