<svg id="add_folder" data-name="add folder" xmlns="http://www.w3.org/2000/svg" viewBox="0 0 300 180"><defs><style>.cls-1,.cls-11,.cls-16,.cls-21,.cls-4,.cls-5,.cls-8{fill:none;}.cls-1{stroke:#979797;}.cls-1,.cls-10,.cls-12,.cls-13,.cls-15,.cls-16,.cls-21,.cls-4,.cls-5,.cls-7,.cls-8,.cls-9{stroke-miterlimit:10;}.cls-2{fill:#3fd15b;}.cls-12,.cls-3{fill:#659ffc;}.cls-4{stroke:#659ffc;}.cls-5{stroke:#bfbfbf;stroke-dasharray:3;}.cls-11,.cls-21,.cls-5,.cls-7,.cls-8{stroke-linecap:round;}.cls-6{fill:#f4b22f;}.cls-14,.cls-18,.cls-7{fill:#fff;}.cls-10,.cls-11,.cls-12,.cls-13,.cls-14,.cls-15,.cls-16,.cls-21,.cls-7,.cls-9{stroke:#36324a;}.cls-10,.cls-11,.cls-12,.cls-13,.cls-14,.cls-15,.cls-16,.cls-7,.cls-9{stroke-width:1.5px;}.cls-8{stroke:#dfdfdf;}.cls-21,.cls-8{stroke-width:3px;}.cls-9{fill:#dcf7e8;}.cls-10{fill:#66c529;}.cls-11,.cls-14{stroke-linejoin:round;}.cls-13{fill:#f5faff;}.cls-14{stroke-linecap:square;}.cls-15{fill:#fef1f1;}.cls-17{fill:#f74d4d;}.cls-19{fill:#ffc84a;}.cls-20{fill:#ff9d4d;}</style></defs><title>add-folder-image</title><line class="cls-1" x1="65" y1="151" x2="79" y2="151"/><line class="cls-1" x1="83" y1="151" x2="88" y2="151"/><line class="cls-1" x1="96" y1="151" x2="212" y2="151"/><line class="cls-1" x1="216" y1="151" x2="221" y2="151"/><path class="cls-2" d="M135.78,18l1.1,3.29a2.7,2.7,0,0,0,1.65,1.38l2.47.82-2.74.82A2.69,2.69,0,0,0,136.61,26l-.83,2.74L134.69,26a3.79,3.79,0,0,0-1.1-1.37l-3.29-1.1,3-1.1A2,2,0,0,0,134.69,21Z"/><rect class="cls-3" x="83.08" y="45.4" width="5.73" height="5.73" transform="translate(25.19 -29.35) rotate(22.63)"/><polygon class="cls-4" points="235.86 74.72 235.39 78.57 234.93 82.42 231.82 80.09 228.72 77.76 232.29 76.24 235.86 74.72"/><path class="cls-5" d="M184.66,77h15.67s12.45,1.5,15.59,13.1a9,9,0,0,1,.09,2.49c0,.17,0,.36,0,.55-.48,9.5-7.85,16.86-16.61,16.86H92.19c-15.4-.43-16.63,24.51-1.28,25.9.51.05,1,.08,1.57.11h9.68"/><rect class="cls-6" x="188.6" y="29.83" width="0.83" height="2.77" rx="0.31" ry="0.31"/><rect class="cls-6" x="188.6" y="37.03" width="0.83" height="2.77" rx="0.31" ry="0.31"/><rect class="cls-6" x="184.03" y="34.4" width="2.77" height="0.83" rx="0.31" ry="0.31"/><rect class="cls-6" x="191.23" y="34.4" width="2.77" height="0.83" rx="0.31" ry="0.31"/><rect class="cls-6" x="191.15" y="35.97" width="0.83" height="2.77" rx="0.31" ry="0.31" transform="translate(29.69 146.4) rotate(-45)"/><rect class="cls-6" x="186.06" y="30.88" width="0.83" height="2.77" rx="0.31" ry="0.31" transform="translate(31.79 141.29) rotate(-44.99)"/><rect class="cls-6" x="185.09" y="36.94" width="2.77" height="0.83" rx="0.31" ry="0.31" transform="translate(28.2 142.8) rotate(-45)"/><rect class="cls-6" x="190.18" y="31.85" width="2.77" height="0.83" rx="0.31" ry="0.31" transform="translate(33.29 144.9) rotate(-45)"/><rect class="cls-6" x="75.13" y="89.5" width="0.75" height="2.5" rx="0.28" ry="0.28"/><rect class="cls-6" x="75.13" y="96" width="0.75" height="2.5" rx="0.28" ry="0.28"/><rect class="cls-6" x="71" y="93.63" width="2.5" height="0.75" rx="0.28" ry="0.28"/><rect class="cls-6" x="77.5" y="93.63" width="2.5" height="0.75" rx="0.28" ry="0.28"/><rect class="cls-6" x="77.42" y="95.05" width="0.75" height="2.5" rx="0.28" ry="0.28" transform="translate(-45.31 83.22) rotate(-45)"/><rect class="cls-6" x="72.83" y="90.45" width="0.75" height="2.5" rx="0.28" ry="0.28" transform="translate(-43.4 78.61) rotate(-44.99)"/><rect class="cls-6" x="71.95" y="95.92" width="2.5" height="0.75" rx="0.28" ry="0.28" transform="translate(-46.65 79.97) rotate(-45)"/><rect class="cls-6" x="76.55" y="91.33" width="2.5" height="0.75" rx="0.28" ry="0.28" transform="translate(-42.06 81.87) rotate(-45)"/><path class="cls-7" d="M101,148.54V87a4.15,4.15,0,0,1,4.36-3.91H162A4.15,4.15,0,0,1,166.36,87V99.35"/><path class="cls-8" d="M104.39,137.38V90.2a4,4,0,0,1,4.2-3.76h54.66a4,4,0,0,1,4.2,3.76v11.9"/><polygon class="cls-9" points="183.57 69.17 183.34 70.53 177.9 103.34 138.27 96.77 146.08 49.71 171.22 53.88 172.83 54.15 183.57 69.17"/><polygon class="cls-10" points="172.75 54.61 170.77 66.53 183.18 68.59 172.75 54.61"/><line class="cls-11" x1="147.69" y1="86.64" x2="166.76" y2="89.8"/><line class="cls-11" x1="149.04" y1="78.46" x2="168.11" y2="81.63"/><line class="cls-11" x1="150.25" y1="71.16" x2="159.79" y2="72.74"/><polygon class="cls-12" points="114.77 59.85 123.74 56.3 124.45 58.1 130.06 55.88 132.55 62.18 112.37 70.17 109.87 63.87 115.48 61.65 114.77 59.85"/><polygon class="cls-13" points="144.99 70.64 143.16 66.01 139.03 55.6 131.18 58.7 132.55 62.18 112.37 70.17 110.99 66.7 103.14 69.81 118.73 109.17 154.62 94.95 154.16 93.8 144.99 70.64"/><line class="cls-14" x1="121.86" y1="77.13" x2="136.44" y2="71.35"/><rect class="cls-13" x="113.8" y="76.84" width="4.98" height="4.98" rx="1.63" ry="1.63" transform="translate(-21.04 48.4) rotate(-21.61)"/><line class="cls-14" x1="128.74" y1="94.49" x2="138.22" y2="90.74"/><rect class="cls-13" x="120.68" y="94.21" width="4.98" height="4.98" rx="1.63" ry="1.63" transform="translate(-26.95 52.16) rotate(-21.61)"/><line class="cls-14" x1="125.53" y1="86.39" x2="135.01" y2="82.63"/><rect class="cls-13" x="117.47" y="86.1" width="4.98" height="4.98" rx="1.63" ry="1.63" transform="matrix(0.93, -0.37, 0.37, 0.93, -24.2, 50.4)"/><rect class="cls-15" x="166.64" y="78.51" width="40.29" height="28.56" rx="3.3" ry="3.3" transform="translate(57.13 -70.58) rotate(25.15)"/><line class="cls-16" x1="171.83" y1="77.73" x2="208.3" y2="94.85"/><line class="cls-16" x1="174.02" y1="85.49" x2="191.2" y2="93.55"/><line class="cls-16" x1="171.95" y1="89.9" x2="192.07" y2="99.34"/><line class="cls-16" x1="169.88" y1="94.31" x2="181.91" y2="99.96"/><path class="cls-17" d="M172,77.82l1.3-2.7a3.83,3.83,0,0,1,5.12-1.69l28.71,13.82A3.83,3.83,0,0,1,209,92.31l-1.3,2.7"/><path class="cls-18" d="M121.31,94.88h75.14a3.33,3.33,0,0,1,3.11,4.51l-18.72,49.14a3.33,3.33,0,0,1-3.11,2.14h-72.8a3.32,3.32,0,0,1-3.15-4.37l16.38-49.14A3.32,3.32,0,0,1,121.31,94.88Z"/><path class="cls-19" d="M125.31,94.88h75.14a3.33,3.33,0,0,1,3.11,4.51l-18.72,49.14a3.33,3.33,0,0,1-3.11,2.14h-72.8a3.32,3.32,0,0,1-3.15-4.37l16.38-49.14A3.32,3.32,0,0,1,125.31,94.88Z"/><path class="cls-20" d="M196,94.88a3.33,3.33,0,0,1,3.11,4.51l-18.72,49.14a3.33,3.33,0,0,1-3.11,2.14"/><path class="cls-16" d="M120.88,94.88H196a3.33,3.33,0,0,1,3.11,4.51l-18.72,49.14a3.33,3.33,0,0,1-3.11,2.14H104.5a3.32,3.32,0,0,1-3.15-4.37l16.38-49.14A3.32,3.32,0,0,1,120.88,94.88Z"/><line class="cls-21" x1="145.05" y1="121.45" x2="166.31" y2="121.45"/></svg>